<!DOCTYPE svg PUBLIC "-//W3C//DTD SVG 1.1//EN" "http://www.w3.org/Graphics/SVG/1.1/DTD/svg11.dtd">
<!-- Uploaded to: SVG Repo, www.svgrepo.com, Transformed by: SVG Repo Mixer Tools -->
<svg height="64px" width="64px" version="1.1" id="Layer_1" xmlns="http://www.w3.org/2000/svg" xmlns:xlink="http://www.w3.org/1999/xlink" viewBox="0 0 460 460" xml:space="preserve" fill="#000000">
<g id="SVGRepo_bgCarrier" stroke-width="0"/>
<g id="SVGRepo_tracerCarrier" stroke-linecap="round" stroke-linejoin="round"/>
<g id="SVGRepo_iconCarrier"> <g style="opacity:0.95;"> <path style="fill:#C2FBFF;" d="M172.758,452.82C73.426,427.377,0,337.264,0,230C0,102.975,102.975,0,230,0 c97.288,0,180.468,60.404,214.082,145.754L172.758,452.82z"/> <path style="fill:#71E2F0;" d="M444.08,145.754l-63.598-63.598L328,96.5l-15.59,43.02L83.1,254.27l40.314,40.314l-40.313,9.685 l37.5,37.5l-29.446,29.445l81.603,81.603C191.059,457.505,210.238,460,230,460c127.026,0,230-102.975,230-230 C460,200.262,454.355,171.843,444.08,145.754z"/> <polygon style="fill:#5488A8;" points="183.38,139.52 203.38,196.895 183.38,254.27 83.1,254.27 64.35,139.52 "/> <polygon style="fill:#366796;" points="312.41,139.52 293.6,254.27 183.38,254.27 183.38,139.52 "/> <path style="fill:#121149;" d="M257.182,304.269H83.101v-20h174.081c11.657,0,23.099-9.719,24.984-21.222l23.424-142.903 c3.434-20.947,23.496-37.988,44.721-37.988h30.171v20h-30.171c-11.657,0-23.099,9.719-24.985,21.223l-23.424,142.903 C298.469,287.228,278.407,304.269,257.182,304.269z"/> <path style="fill:#121149;" d="M103.101,351.769l7.5,27.5c15.188,0,27.5-12.312,27.5-27.5s-12.312-27.5-27.5-27.5L103.101,351.769z "/> <path style="fill:#273B7A;" d="M83.101,351.769c0,15.188,12.312,27.5,27.5,27.5v-55C95.413,324.269,83.101,336.581,83.101,351.769z "/> <path style="fill:#121149;" d="M249.682,351.769l7.5,27.5c15.188,0,27.5-12.312,27.5-27.5s-12.312-27.5-27.5-27.5L249.682,351.769z "/> <path style="fill:#273B7A;" d="M229.682,351.769c0,15.188,12.312,27.5,27.5,27.5v-55 C241.994,324.269,229.682,336.581,229.682,351.769z"/> <path style="fill:#FFEDB5;" d="M415.35,185.9v40.42c0,45.18-19.97,71.97-36.72,86.49c-17.96,15.57-35.96,20.5-37.96,21.01 l-4.96,1.27l-20-90.4l20-86.41L415.35,185.9z"/> <path style="fill:#FFFFFF;" d="M335.71,158.28v176.81l-4.97-1.27c-1.99-0.51-20-5.44-37.95-21.01 c-16.76-14.52-36.73-41.31-36.73-86.49V185.9L335.71,158.28z"/> <path style="fill:#121149;" d="M395.35,200.131v26.19c0,72.844-59.643,88.125-59.643,88.125l-10.476-69.756l10.476-65.244 L395.35,200.131z"/> <path style="fill:#D48B07;" d="M276.064,200.131v26.19c0,72.844,59.643,88.125,59.643,88.125v-135L276.064,200.131z"/> </g> </g>
</svg>